<svg xmlns="http://www.w3.org/2000/svg" xmlns:xlink="http://www.w3.org/1999/xlink" width="166.436" height="65.08" viewBox="0 0 166.436 65.08">
  <defs>
    <clipPath id="clip-path">
      <rect id="Rectangle_159" data-name="Rectangle 159" width="166.436" height="65.08" fill="none"/>
    </clipPath>
    <clipPath id="clip-path-2">
      <path id="Path_350" data-name="Path 350" d="M101.78,296.393H249.17V249.27H101.78v47.123Z" transform="translate(-101.78 -249.27)" fill="none"/>
    </clipPath>
  </defs>
  <g id="logo-jcb" transform="translate(-83.36 -230.83)">
    <g id="Group_530" data-name="Group 530" transform="translate(92.648 240.129)" clip-path="url(#clip-path-2)">
      <path id="Path_349" data-name="Path 349" d="M249.246,293.7c0,1.483-.9,2.693-2.017,2.693H103.767c-1.109,0-2.017-1.21-2.017-2.693V251.968c0-1.513.9-2.7,2.017-2.7H247.234c1.109,0,2.017,1.21,2.017,2.7V293.7Z" transform="translate(-101.765 -249.27)" fill="#231f20"/>
    </g>
    <path id="Path_351" data-name="Path 351" d="M363.47,308v.247h0v-.232" transform="translate(-138.862 -38.256)" fill="#204595"/>
    <path id="Path_352" data-name="Path 352" d="M143.52,292.906c-2.41,2.451-5.981,3.026-11.24,3.026H124.8c-10.463,0-13.791-2.6-13.791-11.573v-4.911h10.03c0,.459-.045.918-.045,1.326,0,4.483,1.059,5.915,5.254,5.915h4.826c3.858,0,4.538-1.513,4.538-5.254V258.44H146.3v26.615a11.453,11.453,0,0,1-2.8,7.851" transform="translate(-13.707 -13.687)" fill="#fff"/>
    <path id="Path_353" data-name="Path 353" d="M228.065,271.018c0-2.955-1.785-4.18-5.643-4.18h-8.6c-6.944,0-8.633.968-8.633,7.292v5.154c0,5.809,2.365,6.984,8.633,6.984h6.223c5.935,0,8.3-.666,8.3-5.1v-.408h10.852c.05.968.1,1.836.1,2.7,0,4.584-1.009,7.645-3.53,9.581-2.652,2.093-6.848,2.521-12.975,2.521H210.845c-5.547,0-9.455-.257-12.491-2.753-2.945-2.446-4.034-5.814-4.034-10.862V271.866c0-11.094,4.584-14.276,16.545-14.276h11.961c6.127,0,10.277.308,12.833,2.4,2.264,1.836,3.227,4.9,3.227,9.334,0,.661,0,1.377-.045,2.088H228.065v-.358Z" transform="translate(-55.007 -13.266)" fill="#fff"/>
    <path id="Path_354" data-name="Path 354" d="M330.612,283.678c0-1.987-1.16-3.263-2.945-3.263H307.9V287.1h19.772c1.881,0,2.945-1.225,2.945-3.419m-1.16-13.867a2.761,2.761,0,0,0-2.748-3.061H307.9v6.122H326.7c1.785,0,2.748-1.074,2.748-3.061M297.18,295.528V258.44h31.592c7.866,0,11.674,3.368,11.674,10.352,0,3.974-1.639,6.424-5.159,7.851,4.438.761,6.364,3.53,6.364,8.819,0,7.14-3.469,10.045-11.235,10.045Z" transform="translate(-105.999 -13.687)" fill="#fff"/>
    <path id="Path_355" data-name="Path 355" d="M125.588,272.725H111.01V257.95h14.578v14.775Z" transform="translate(-13.707 -13.444)" fill="#fbaf24"/>
    <path id="Path_356" data-name="Path 356" d="M128.89,267.18l1.427.217a1.1,1.1,0,0,1,.847.772,5.435,5.435,0,0,0,.192.63.535.535,0,0,1-.227.645.842.842,0,0,1,.575.449s.272.842.3.928a.766.766,0,0,1-.439,1.009l-1.155.333-1.513-4.977Zm1.094,1.034.388.03a.182.182,0,0,1,.161.116c0,.04.136.4.146.444s.076.252-.1.257h-.338l-.262-.847Zm.545,1.805h.308a.252.252,0,0,1,.272.146c0,.04.141.434.156.479s.05.257-.106.3l-.313.066-.318-.973Z" transform="translate(-22.571 -18.02)" fill="#231f20" fill-rule="evenodd"/>
    <path id="Path_357" data-name="Path 357" d="M118.415,265.52l2.138.338.348,1.23-.5-.045s1.225,4.165,1.271,4.3c.151.469.247.953-.424,1.185l-.792.242a.787.787,0,0,1-1.074-.54l-.782-2.577.958-.071.429,1.422c.086.272.141.378.413.313s.2-.136.141-.318c0-.076-1.18-4.034-1.18-4.034l-.545-.04-.4-1.4Z" transform="translate(-17.376 -17.197)" fill="#231f20"/>
    <path id="Path_358" data-name="Path 358" d="M118.415,265.52l2.138.338.348,1.23-.5-.045s1.225,4.165,1.271,4.3c.151.469.247.953-.424,1.185l-.792.242a.787.787,0,0,1-1.074-.54l-.782-2.577.958-.071.429,1.422c.086.272.141.378.413.313s.2-.136.141-.318c0-.076-1.18-4.034-1.18-4.034l-.545-.04-.4-1.4Z" transform="translate(-17.376 -17.197)" fill="none" stroke="#231f20" stroke-miterlimit="3.86" stroke-width="0.04"/>
    <path id="Path_359" data-name="Path 359" d="M124.2,266.484l.893.151a1.109,1.109,0,0,1,.928.756c.04.151.378,1.245.378,1.245h-.812s-.151-.529-.182-.62c-.081-.227-.086-.282-.328-.323s-.232.081-.176.262c0,.1.766,2.683.8,2.794.086.292.111.408.368.358s.187-.187.126-.4l-.252-.847.807-.061.434,1.437a.686.686,0,0,1-.292.857.5.5,0,0,1-.131.061l-.777.232a.656.656,0,0,1-.887-.429c0-.061-1.336-4.619-1.407-4.841-.116-.378,0-.7.5-.625" transform="translate(-19.972 -17.672)" fill="#231f20"/>
    <path id="Path_360" data-name="Path 360" d="M124.2,266.484l.893.151a1.109,1.109,0,0,1,.928.756c.04.151.378,1.245.378,1.245h-.812s-.151-.529-.182-.62c-.081-.227-.086-.282-.328-.323s-.232.081-.176.262c0,.1.766,2.683.8,2.794.086.292.111.408.368.358s.187-.187.126-.4l-.252-.847.807-.061.434,1.437a.686.686,0,0,1-.292.857.5.5,0,0,1-.131.061l-.777.232a.656.656,0,0,1-.887-.429c0-.061-1.336-4.619-1.407-4.841-.116-.378,0-.7.5-.625Z" transform="translate(-19.972 -17.672)" fill="none" stroke="#231f20" stroke-miterlimit="3.86" stroke-width="0.04"/>
    <path id="Path_361" data-name="Path 361" d="M115.368,263.326l7.982,1.392a1.437,1.437,0,0,1,1.246,1.009l1.049,3.333a1.009,1.009,0,0,1-.6,1.387l-6.828,2.315a1.009,1.009,0,0,1-1.513-.661s-2.113-7.029-2.173-7.246a3.026,3.026,0,0,1-.161-.812c0-.913.817-.731,1.009-.716m.182.378,7.7,1.321a1.145,1.145,0,0,1,1.049.817c.04.136,1.009,3.126,1.009,3.258a.746.746,0,0,1-.464,1.069l-6.828,2.249c-.161.05-.782.323-1.009-.62l-2.093-7.009a2.95,2.95,0,0,1-.141-.6c-.04-.55.282-.57.55-.529a1.468,1.468,0,0,1,.252.04" transform="translate(-15.373 -16.097)" fill="#231f20" fill-rule="evenodd"/>
  </g>
</svg>
