<svg xmlns="http://www.w3.org/2000/svg" width="92.276" height="69.44" viewBox="0 0 92.276 69.44">
  <g id="logo-jhon" transform="translate(-87.999 -392.47)">
    <path id="Path_362" data-name="Path 362" d="M180.276,426.849c0,13.161-1.84,20.647-5.081,25.918-3.853,6.275-23.069,9.141-41.224,9.141-17.031.081-35-2.307-40.261-8.484-4.256-5.006-5.669-13.38-5.71-26.789-.035-12.8,1.153-21.437,5.94-26.316s19.1-7.63,41.276-7.843c11.338-.115,32.325,1.43,39.16,8,5.767,5.542,5.9,16.027,5.9,26.374Z" transform="translate(0)" fill="#347137" fill-rule="evenodd"/>
    <path id="Path_363" data-name="Path 363" d="M143,414.635l.127-.11a7.809,7.809,0,0,0,2.4-5.139c-.029-.686,0-1.465-.606-1.909-.1.329.173,2.307-.975,3.645.265-1.24.5-3.622-.531-4.533-.208,0-.115.634-.058.98a4.682,4.682,0,0,1-.629,2.734,8.305,8.305,0,0,0-2.491-1.99l-.081-.732-.381.531a5.462,5.462,0,0,0-.854-.271c.092.19.577.634.727.934a9.955,9.955,0,0,0-.409,2.7c-1.494-1-1.419-4.914-1.488-4.885a4.913,4.913,0,0,0-.046,4.412,7.5,7.5,0,0,0-1.078,0,4.935,4.935,0,0,0-3.662-1.9c0,.242.888.577,1.3.934a2.7,2.7,0,0,1,.911,1.153c.035.467-2.03.761-2.168,1.811-.046.277,1.955-.888,3.57-.888a2.981,2.981,0,0,1,3.207,2.711l-1.084.438c-.617.248-.386.4-.975.727-.8.444-2.445.634-3.062,1.055a1.269,1.269,0,0,0-.577,1.061c0,.248-.15.513-.075.75s.265.2.4.277.288.26.461.254c.721-.029,1.413-.075,2.134-.04a3.639,3.639,0,0,1,1.269.363c.375.185,1.153-.063,1.119.352a26.267,26.267,0,0,0-.606,4.135,7.169,7.169,0,0,0,.7,2.82c.167.427.727,1.182.64,1.626.081.386-.167,1.569-.577,1.73a23.133,23.133,0,0,0-3.564,1.494c-.45.231-1.205.19-1.621.479-1.153.79-1.378,1.482-2.094,2.076-.606.508-1.269,1.153-1.857,1.661-.45.4-1.211,1.084-1.384,1.252s-.8.525-1.153.813a4.245,4.245,0,0,0-1.344,1.621h.386v.577c.969.075,2.249-.1,2.688-.79.577-.929.848-1.35,1.153-.94.686-1.373,3.46-3.737,4.464-4.349,1.1-.663,3.593-.784,4.17-1a6.29,6.29,0,0,0,3.085-.744c-.225.577-1.592,1.205-1.869,1.436-.577.467-1.246.692-1.794,1.194a17.187,17.187,0,0,0-1.6,2.174c-1.528,1.9-2.307,2.936-2.607,3.9s-2.082,1.453-2.157,3.46l.577-.242.058.675a3.72,3.72,0,0,0,2.094-1.39c.606-.732.744-2.163,1.275-1.863.294-1.35,2.814-4.429,3.928-5.092a30.283,30.283,0,0,1,5.4-2.307c.8-.352.577-1.292,1.009-1.73a39.878,39.878,0,0,0,4.522-.392c2.809-.617,6.038-4.147,7.555-4.118,1.153,0,1.828,2.463,3.754,2.4,2.618-.086,2.076-2.07,4.539-2.024a1.419,1.419,0,0,1,1.234.963,5.842,5.842,0,0,0,1.326,2.059c.3.335.5,1.228.888,1.448a10.877,10.877,0,0,0,1.921.386,2.147,2.147,0,0,0,1.7.213V433.2c.2-.04.311-.156.5-.2a3.362,3.362,0,0,0-1.286-1.2c-.652-.409-1.69.121-1.39-.577a10.461,10.461,0,0,1-1.626-1.609,5.375,5.375,0,0,1-1.378-2.561c-.19-.836-.173-1.113-1.251-.969l-1.35.156c.386-.761.675-1.73,1.58-1.217s1.153.813,2.03,1.3a12.726,12.726,0,0,0,1.944,1.1,7.6,7.6,0,0,0,1.649.179,1.673,1.673,0,0,0,1.153-.358c-.075-.1-.156-.311-.231-.415l.415-.161c-.473-.473-.611-.732-1-.888-.669-.265-1.921.854-1.649-.456A3.426,3.426,0,0,1,171,425.12a10.958,10.958,0,0,1-3.668-2.618c-.484-.49-1.015-.721-1.448,0-.5.819-.986,1.517-1.459,2.232a11.214,11.214,0,0,0-2.37-3.927,2.024,2.024,0,0,0,.8-1.286c0-1.246-1.661-4.429-2.145-4.285.283,1.563.409,3.824-.577,4.614-.894.7-2.451.415-3.4.629s-1.869.836-2.855,1.153c-.773.236-1.6.208-2.382.415-1.494.4-2.837,1.292-4.706,1.511-1.649.086-2.105-.738-2.209-1.419-.265-1.73-.26-3.708-1.2-5.571,1.551-.04,2.7-.1,2.491-2.572-.248-.352-2.013.525-2.682,1.009l-.225-.242Zm-1.223,0-.542-.04a8.582,8.582,0,0,1,.087-2.624,2.307,2.307,0,0,0-.444,1.269h-.283a11.212,11.212,0,0,1-.369-2.267,4,4,0,0,1,3.137,1.182,3.961,3.961,0,0,1-.623.969,2.052,2.052,0,0,0-.323-.092,2.024,2.024,0,0,0-.34-1.153c0,.652.063,2.307-.3,2.734Zm-1.649-4.3a6.7,6.7,0,0,1,1.4.115,4.256,4.256,0,0,0-1.315-1.39A3.38,3.38,0,0,0,140.128,410.339Z" transform="translate(-16.314 -5.977)" fill="#fece22"/>
    <path id="Path_364" data-name="Path 364" d="M179.949,428.468a75.864,75.864,0,0,1-1.153,14.995,26.154,26.154,0,0,1-4.141,10.179c-1.9,2.693-6.707,4.533-13.005,5.727-7.5,1.419-17.163,1.967-26.46,1.967h0a142.735,142.735,0,0,1-24.857-1.892c-6.344-1.153-11.3-2.884-13.265-5.248-2.024-2.451-3.368-5.831-4.2-10.191a112.718,112.718,0,0,1-.179-30.884c.8-4.262,2.2-7.59,4.556-9.96,2.2-2.215,7.526-3.9,14.159-5.052a148.849,148.849,0,0,1,25.053-1.874,159.266,159.266,0,0,1,24.13,2.013c5.813,1.044,10.86,2.584,13.392,4.81,2.7,2.382,4.2,6.119,5.018,10.623a86.237,86.237,0,0,1,.946,14.793Zm-2.716,14.683a75.686,75.686,0,0,0,1.1-14.683,85.478,85.478,0,0,0-.911-14.51c-.756-4.158-2.105-7.578-4.5-9.695-2.307-2.013-7.059-3.46-12.607-4.435a154.668,154.668,0,0,0-23.853-1.99,146.908,146.908,0,0,0-24.8,1.857c-6.344,1.1-11.338,2.641-13.265,4.614-2.105,2.122-3.368,5.19-4.112,9.118a82.338,82.338,0,0,0-.952,14.862,83.43,83.43,0,0,0,1.153,15.422c.807,4.176,2.019,7.238,3.864,9.47,1.684,2.036,6.292,3.6,12.29,4.695a141.305,141.305,0,0,0,24.563,1.863h0c9.228,0,18.79-.536,26.16-1.932,5.906-1.119,10.381-2.763,11.984-5.075A24.563,24.563,0,0,0,177.233,443.151Z" transform="translate(-1.571 -1.591)" fill="#fece22" fill-rule="evenodd"/>
    <path id="Path_365" data-name="Path 365" d="M167.324,478.429h-1.73v1.39h1.73a.7.7,0,0,0,0-1.4Zm-3.737-1.58h4.245a2.12,2.12,0,0,1,2.151,2.238,1.93,1.93,0,0,1-1.153,1.926l1.378,2.013h-2.618l-.911-1.73h-1.067v1.771h-2v-6.217Zm7.5,0h5.6v1.494h-3.46v1.044h2.832v1.24h-2.832v.923h3.46v1.482h-5.6Zm-14.533,0h5.6v1.494h-3.46v1.044h2.826v1.24H158.69v.923h3.46v1.482h-5.6Zm-6.834,0h5.6v1.494h-3.46v1.044h2.826v1.24h-2.826v.923h3.46v1.482H149.71v-6.182Zm-5.191,1.482v3.114h1.153c1.413,0,1.425-3.114-.173-3.114Zm-1.984-1.482H146.5c2.884,0,3.074,6.177,0,6.177h-3.974v-6.177Zm-23.888,1.528c.669,0,1.217.767,1.217,1.73s-.548,1.73-1.217,1.73-1.217-.767-1.217-1.73S117.985,478.377,118.654,478.377Zm-.029-1.528a3.241,3.241,0,1,1-3.408,3.241,3.322,3.322,0,0,1,3.408-3.241Zm-7.878,3.241v1.05c0,.421,1.263.421,1.263,0v-4.291h2.307v4.17c.092,1.765-1.482,2.007-2.307,2.007h-1.263c-.813,0-2.215-.156-2.307-1.886v-1.084Zm19.932-3.241h2.209l1.811,3.022v-3.022h2.07v6.177H134.52l-1.771-2.953v2.953h-2.07Zm-7.8,0h2.07V479.1h1.886v-2.249h2.07v6.177h-2.07v-2.365h-1.886v2.365h-2.07Z" transform="translate(-8.652 -35.715)" fill="#fece22" fill-rule="evenodd"/>
  </g>
</svg>
