<svg xmlns="http://www.w3.org/2000/svg" xmlns:xlink="http://www.w3.org/1999/xlink" width="144.114" height="65.823" viewBox="0 0 144.114 65.823">
  <defs>
    <clipPath id="clip-path">
      <rect id="Rectangle_160" data-name="Rectangle 160" width="144.087" height="65.816" fill="none"/>
    </clipPath>
  </defs>
  <g id="mahindra" transform="translate(-97.27 -545.38)">
    <g id="Group_531" data-name="Group 531" transform="translate(97.27 545.38)" clip-path="url(#clip-path)">
      <path id="Path_366" data-name="Path 366" d="M195.83,563.505c-1.362,2.833-3.037,5.543-4.269,8.457-.375,1.158-.981,2.553-.2,3.677a3.765,3.765,0,0,0,2.962.436,55.929,55.929,0,0,0,11.024-3.037,28.1,28.1,0,0,0,9.628-5.992,9.478,9.478,0,0,0,2.833-5.883,8.028,8.028,0,0,0-3.479-6.489,29.281,29.281,0,0,0-10.534-5.209A160.655,160.655,0,0,0,195.83,563.505ZM176.275,547.6a88.965,88.965,0,0,0-17.561,4.222c-3.949,1.478-7.817,4.086-9.533,8.062a6.809,6.809,0,0,0,.395,6.224,4.3,4.3,0,0,0,4.154,2.621,18.418,18.418,0,0,0,5.318-2.24c2.805-1.655,5.788-2.955,8.668-4.46a306.505,306.505,0,0,1,28.332-12.665,9.822,9.822,0,0,0,2.853-1.253,101.8,101.8,0,0,0-22.626-.511m-6.237-.844a82.384,82.384,0,0,1,19.365-1.307c5.284.381,10.615.681,15.77,1.968a37.327,37.327,0,0,1,15.286,7.708A11.922,11.922,0,0,1,224,559.787a10.476,10.476,0,0,1-1.7,10.452,22,22,0,0,1-6.2,5.311,53.515,53.515,0,0,1-13.986,4.855,93.4,93.4,0,0,1-23.416,2.349,17.791,17.791,0,0,1,2.118-3.949c2.145-3.568,4.589-6.945,6.809-10.452,4.514-6.584,9.682-12.672,14.524-19-3.915,2.683-7.136,6.21-10.513,9.533-2.894,3.119-5.992,6.074-8.641,9.41-3.588,4.657-7.184,9.315-10.615,14.081a51.337,51.337,0,0,1-8.682-1.437c1.968-3.241,4.766-5.815,7.388-8.559,2.227-2.281,4.6-4.419,6.891-6.632a195.417,195.417,0,0,1,16.689-12.89c1.668-1.192,3.459-2.233,5.011-3.575a152.511,152.511,0,0,0-13.707,7.177,104.587,104.587,0,0,0-16.771,11.923c-4.085,3.282-7.905,6.891-11.657,10.54-.5.518-1.246.089-1.825,0a23.926,23.926,0,0,1-11.364-8.368,9.415,9.415,0,0,1-.885-9.015c1.968-4.228,5.767-7.306,9.812-9.451a67.262,67.262,0,0,1,16.771-5.3" transform="translate(-111.773 -545.379)" fill="#db4028"/>
      <path id="Path_367" data-name="Path 367" d="M97.27,617.429c.2-1.409.769-3.452,2.56-3.4,1.648.061,3.527-.415,5.025.449.483,1.062.129,2.336.32,3.479.919-1.2,1.049-3.1,2.519-3.786a19.068,19.068,0,0,1,5.631,0c1.716.429,2.22,2.281,2.683,3.752.586-.919.98-1.941,1.491-2.894.6-1.178,2.152-.974,3.255-1.028,1.532.136,3.4-.259,4.6.94s1.362,3,1.362,4.589c-.054,3.963.061,7.919-.054,11.875,0,1.818-2.247,1.171-3.4,1.362-1.076-.116-2.935.4-3.289-1.015-.347-3.738.116-7.49-.211-11.269-.374-1.648-2.526-1.062-3.765-1.266-.048,3.8,0,7.592,0,11.392,0,.681,0,1.525-.681,1.92a12.333,12.333,0,0,1-5.509.088,1.934,1.934,0,0,1-.681-1.614c-.082-3.057.109-6.128-.068-9.185-.116-.824-.054-1.92-.906-2.376a13.564,13.564,0,0,0-2.928-.225c-.293,4.051,0,8.123-.143,12.181,0,.477-.041,1.246-.735,1.185a24.975,24.975,0,0,1-5.57-.1c-.565-4.433-.116-8.933-.184-13.387,0-.8-.817-1.185-1.287-1.7Z" transform="translate(-97.27 -567.259)" fill="#6f6f71"/>
      <path id="Path_368" data-name="Path 368" d="M169.39,617.54c.552-1.171.769-3.023,2.308-3.262a15.279,15.279,0,0,1,5.536.17,61.66,61.66,0,0,1,.279,7.613c.565-.865.892-2.009,1.818-2.567a15.833,15.833,0,0,1,4.576-.17,2.877,2.877,0,0,1,2.526,3.112c0,3.4.1,6.809-.109,10.214a33.571,33.571,0,0,1-5.488,0c-.177-2.833.15-5.679-.17-8.491-.116-1.239-1.838-1.321-2.683-.769a3.554,3.554,0,0,0-.579,2.322c-.041,2.315.1,4.637-.1,6.938a15.763,15.763,0,0,1-5.951,0c-.681-.409-.456-1.362-.538-1.988.068-3.711.211-7.415.1-11.126.136-1.015-.885-1.478-1.532-2.043Z" transform="translate(-120.283 -567.309)" fill="#6f6f71"/>
    </g>
    <path id="Path_369" data-name="Path 369" d="M199.287,614.43a15.771,15.771,0,0,1,5.624-.048,8.328,8.328,0,0,1-.041,3.527,20.279,20.279,0,0,1-5.706,0,6.973,6.973,0,0,1,.123-3.452Z" transform="translate(-32.463 -21.945)" fill="#6f6f71"/>
    <g id="Group_532" data-name="Group 532" transform="translate(97.27 545.38)" clip-path="url(#clip-path)">
      <path id="Path_370" data-name="Path 370" d="M247.4,622.814c-.831.313-2.043.375-2.322,1.4a4.508,4.508,0,0,0,.327,3.69c.742,1.008,2.138.511,3.2.633,0-3,.048-5.992,0-8.988a26.706,26.706,0,0,0-1.192,3.262Zm-.211-5.229c.436-1.226.838-3.071,2.4-3.207a18.6,18.6,0,0,1,4.766.089c1.294.422.858,2.077.96,3.119-.184,5.046-.1,10.1-.157,15.143-2.131,0-4.269.082-6.4,0-.116-1.083-.15-2.172-.163-3.261a17.1,17.1,0,0,1-1.294,2.656c-.6.865-1.777.606-2.669.681-1.593,0-3.561.272-4.691-1.137-1.832-2.043-1.083-5.052-1.253-7.558a4.208,4.208,0,0,1,2.724-4.467c2.4-.742,4.95-.123,7.415-.422a15.734,15.734,0,0,1-1.621-1.682" transform="translate(-142.384 -567.361)" fill="#6f6f71"/>
      <path id="Path_371" data-name="Path 371" d="M144.434,625.069c.34-1.253.681-3.016,2.084-3.445,3.4-.245,6.809.041,10.214.041a2.894,2.894,0,0,1,3.125,2.764c.034,3.459,0,6.938-.143,10.391-1.668.681-3.663.232-5.447.2a30.363,30.363,0,0,1-.17-5.161,3.4,3.4,0,0,0-2.22-.429,1.157,1.157,0,0,0-.776,1.791,10.049,10.049,0,0,0,2.88.6,7.728,7.728,0,0,1-1.927,3.146c-1.893.225-3.936.565-5.774-.1-2.969-1.907-2.186-7.687,1.457-8.321,2.043-.184,4.085,0,6.128-.17,0-.272.068-.817.089-1.083-3.166-.1-6.346,0-9.533-.218Z" transform="translate(-112.315 -569.677)" fill="#6f6f71"/>
    </g>
    <path id="Path_372" data-name="Path 372" d="M198.876,621.789a11.348,11.348,0,0,1,4.766.2c1.8.967,1.1,3.275,1.226,4.923-.218,2.724.456,5.6-.4,8.239a31.464,31.464,0,0,1-4.807-.109c-.586-.232-.3-1.062-.429-1.552-.082-2.315.177-4.651-.123-6.952-.089-.8-.933-1.055-1.5-1.457.252-1.124.252-2.533,1.26-3.3Z" transform="translate(-32.018 -24.334)" fill="#6f6f71"/>
    <path id="Path_373" data-name="Path 373" d="M211.708,622.17c.409-.633,1.246-.409,1.886-.49,1.178.048,2.5-.157,3.548.49.912.586.9,1.77,1.151,2.724.586-.967.946-2.158,1.886-2.853,1.559-.565,3.282-.286,4.909-.245s2.356,1.75,2.342,3.112c.054,3.4.041,6.809,0,10.214-1.838.061-3.67.054-5.5,0-.266-2.819.068-5.658-.177-8.471-.517-1.512-2.479-1.035-3.7-1.083-.075,2.656,0,5.311,0,7.967-.123.5.157,1.362-.436,1.566a36.653,36.653,0,0,1-4.324,0c-.742.143-.817-.681-.858-1.205-.157-2.444.123-4.9-.109-7.34-.054-.783-.926-1.028-1.457-1.437a7.18,7.18,0,0,1,.865-2.955Z" transform="translate(-36.249 -24.347)" fill="#6f6f71"/>
    <path id="Path_374" data-name="Path 374" d="M286.275,625.329c.238-1.362.572-3.486,2.329-3.507,3.221-.082,6.448-.075,9.669,0a3.6,3.6,0,0,1,3.4,2.37v11.351h-5.413c-.756-1.811-.395-3.8-.545-5.706-1.008-.225-2.254-.443-3.016.463-.5,1.777,1.866,1.26,2.778,2.043-.1,1.3-1.164,2.322-2.043,3.221h-4.766c-3.507-1.5-3.187-7.769.565-8.716,2.124-.3,4.276,0,6.414-.238-.041-.286-.116-.865-.15-1.158-3.064,0-6.128.177-9.192-.109Z" transform="translate(-60.294 -24.374)" fill="#6f6f71"/>
    <path id="Path_375" data-name="Path 375" d="M265.034,624.551c.15-.912.32-2.043,1.205-2.553a12.256,12.256,0,0,1,4.371,0c1.021.163,1.362,1.273,1.852,2.043.545-.742.906-1.859,1.941-2.043a16.722,16.722,0,0,1,4.589.068c-.422,1.151-.681,2.621-1.839,3.268a20,20,0,0,1-4.862.089c-.15,2.574-.163,5.154-.136,7.728a5.617,5.617,0,0,1-.552,2.438h-1.539a29.894,29.894,0,0,1-3.4-.4c-.388-2.935-.1-5.9-.286-8.852-.477-.558-1.512-.919-1.362-1.791Z" transform="translate(-53.521 -24.386)" fill="#6f6f71"/>
  </g>
</svg>
