<svg xmlns="http://www.w3.org/2000/svg" width="144.422" height="45.955" viewBox="0 0 144.422 45.955">
  <g id="logo-case" transform="translate(-572 -2192)">
    <path id="Path_376" data-name="Path 376" d="M95.341,161.46,83.3,175.681H214.672l4.934-14.221Z" transform="translate(488.7 2062.273)" fill="#ffcb05" fill-rule="evenodd"/>
    <path id="Path_377" data-name="Path 377" d="M124.4,127.748h10.4s3.278-12.858-13.676-12.858c-15.318,0-19.421,12.041-19.421,15.87-.273.273-1.642,12.579,15.318,12.579,13.949,0,16.681-10.392,16.681-10.392H122.76a6.228,6.228,0,0,1-5.192,2.726c-3.284,0-5.451-2.46-4.375-6.29a8.814,8.814,0,0,1,7.932-6.017c3.278,0,3.557,3.005,3.278,4.375Z" transform="translate(482.882 2077.11)" fill="#231f20" fill-rule="evenodd"/>
    <path id="Path_378" data-name="Path 378" d="M249.367,116.9h28.995l-1.915,7.387H258.4l-.545,2.46H275.9l-1.642,6.569H256.209l-.545,2.187h17.778l-1.915,7.659H242.26l7.107-26.262Z" transform="translate(438.06 2076.47)" fill="#231f20" fill-rule="evenodd"/>
    <path id="Path_379" data-name="Path 379" d="M160.616,135.775h5.744l-.545-7.387Zm-5.2,7.38H143.11L163.076,116.9h10.944l5.2,26.535H167.178l-.273-2.187h-9.847Z" transform="translate(469.646 2076.47)" fill="#231f20" fill-rule="evenodd"/>
    <path id="Path_380" data-name="Path 380" d="M229.311,125.558l-10.944-.273v-1.1c-.545-1.09-1.363-1.642-3.284-1.642-2.726,0-3.557.552-3.557,1.363,0,.545.552,1.09,2.194,1.642s6.814,1.363,9.54,2.46c3.284,1.1,4.654,2.726,4.382,5.744,0,0,.273,4.647-4.927,7.387A25.335,25.335,0,0,1,211.5,143.6s-8.177-.273-11.761-2.726c-3.55-3.012-3.005-7.659-3.278-7.659h11.489s-.552,3.557,4.375,3.557c3.284,0,3.557-1.1,3.83-1.363,0-.545,0-.825-1.363-1.363-1.363-.273-10.392-2.726-12.034-3.83-.818-.818-3.012-2.46-3.012-5.451.279-4.089,4.927-9.295,15.046-9.022,10.119,0,12.586,3.557,12.858,3.83s1.915,2.187,1.642,6.017Z" transform="translate(452.65 2076.841)" fill="#231f20" fill-rule="evenodd"/>
    <path id="Path_381" data-name="Path 381" d="M133.023,171.622l1.2.3a3.993,3.993,0,0,1-1.363,2.242,3.7,3.7,0,0,1-2.385.777,4.218,4.218,0,0,1-2.371-.6,3.707,3.707,0,0,1-1.4-1.717,6.228,6.228,0,0,1-.477-2.419,5.363,5.363,0,0,1,.538-2.46,3.693,3.693,0,0,1,1.533-1.595,4.463,4.463,0,0,1,2.194-.552,3.673,3.673,0,0,1,2.276.681,3.557,3.557,0,0,1,1.288,1.935l-1.179.279a2.794,2.794,0,0,0-.906-1.438,2.44,2.44,0,0,0-1.506-.443,2.9,2.9,0,0,0-1.738.5,2.583,2.583,0,0,0-.981,1.363,5.369,5.369,0,0,0-.286,1.738,5.5,5.5,0,0,0,.334,2.044,2.494,2.494,0,0,0,1.043,1.281,2.937,2.937,0,0,0,1.54.429,2.589,2.589,0,0,0,1.7-.579,2.978,2.978,0,0,0,.94-1.717Z" transform="translate(475.024 2060.956)" fill="#231f20"/>
    <path id="Path_382" data-name="Path 382" d="M140.809,170.409a3.625,3.625,0,0,0,.879,2.576,3.053,3.053,0,0,0,4.422,0,3.823,3.823,0,0,0,.872-2.685,4.593,4.593,0,0,0-.375-1.928,2.855,2.855,0,0,0-1.09-1.274,2.964,2.964,0,0,0-1.608-.45,3.073,3.073,0,0,0-2.187.865,3.917,3.917,0,0,0-.913,2.91Zm-1.233,0a4.92,4.92,0,0,1,1.206-3.523,4.129,4.129,0,0,1,3.121-1.267,4.375,4.375,0,0,1,2.256.593,3.891,3.891,0,0,1,1.526,1.669,5.731,5.731,0,0,1,0,4.879,3.809,3.809,0,0,1-1.567,1.642,4.47,4.47,0,0,1-2.194.559,4.252,4.252,0,0,1-2.283-.62,3.973,3.973,0,0,1-1.52-1.676,5.186,5.186,0,0,1-.518-2.256Z" transform="translate(470.774 2060.949)" fill="#231f20"/>
    <path id="Path_383" data-name="Path 383" d="M154.5,174.859V165.83h1.22l4.743,7.087V165.83h1.152v9.029h-1.227l-4.743-7.094v7.094Z" transform="translate(466.018 2060.882)" fill="#231f20"/>
    <path id="Path_384" data-name="Path 384" d="M167.287,171.873l1.124-.1a2.46,2.46,0,0,0,.375,1.111,1.983,1.983,0,0,0,.906.681,3.455,3.455,0,0,0,1.363.266,3.509,3.509,0,0,0,1.213-.2,1.71,1.71,0,0,0,.777-.559,1.308,1.308,0,0,0,.252-.777,1.186,1.186,0,0,0-.245-.743,1.826,1.826,0,0,0-.811-.531,15.718,15.718,0,0,0-1.608-.436,8.476,8.476,0,0,1-1.744-.566,2.439,2.439,0,0,1-.961-.838,2.044,2.044,0,0,1-.32-1.124,2.3,2.3,0,0,1,.388-1.281,2.426,2.426,0,0,1,1.131-.9,4.327,4.327,0,0,1,1.663-.313,4.457,4.457,0,0,1,1.765.327,2.555,2.555,0,0,1,1.186.954,2.726,2.726,0,0,1,.443,1.417l-1.145.089a1.881,1.881,0,0,0-.627-1.295,2.419,2.419,0,0,0-1.574-.436,2.562,2.562,0,0,0-1.581.4,1.206,1.206,0,0,0-.5.961,1.009,1.009,0,0,0,.354.8,4.7,4.7,0,0,0,1.8.647,11.77,11.77,0,0,1,2,.572,2.726,2.726,0,0,1,1.165.92,2.249,2.249,0,0,1,.375,1.288,2.467,2.467,0,0,1-.409,1.363,2.726,2.726,0,0,1-1.186.995,4.211,4.211,0,0,1-1.738.354,5.2,5.2,0,0,1-2.044-.361,2.882,2.882,0,0,1-1.3-1.07,3.053,3.053,0,0,1-.491-1.629Z" transform="translate(461.946 2060.965)" fill="#231f20"/>
    <path id="Path_385" data-name="Path 385" d="M182.211,174.859V166.9H179.24v-1.07h7.155v1.07H183.4v7.959Z" transform="translate(458.136 2060.882)" fill="#231f20"/>
    <path id="Path_386" data-name="Path 386" d="M192.759,169.814h2.569a3.8,3.8,0,0,0,1.281-.17,1.363,1.363,0,0,0,.681-.545,1.479,1.479,0,0,0,.238-.8,1.363,1.363,0,0,0-.463-1.056,2.208,2.208,0,0,0-1.472-.416h-2.855v2.991Zm-1.2,5.043v-9.029h4.007a5.26,5.26,0,0,1,1.833.245,1.983,1.983,0,0,1,1,.859,2.555,2.555,0,0,1,.382,1.363,2.256,2.256,0,0,1-.627,1.615,3.114,3.114,0,0,1-1.922.838,3.346,3.346,0,0,1,.722.45,6.418,6.418,0,0,1,.995,1.2l1.567,2.46h-1.526l-1.2-1.881c-.348-.538-.634-.954-.859-1.24a2.794,2.794,0,0,0-.606-.606,1.9,1.9,0,0,0-.545-.239,3.829,3.829,0,0,0-.681-.041h-1.363v4.007Z" transform="translate(454.211 2060.884)" fill="#231f20"/>
    <path id="Path_387" data-name="Path 387" d="M210.848,165.824h1.192v5.22a6.208,6.208,0,0,1-.307,2.16,2.658,2.658,0,0,1-1.111,1.3,3.959,3.959,0,0,1-2.112.5,4.3,4.3,0,0,1-2.044-.443,2.446,2.446,0,0,1-1.152-1.261,5.99,5.99,0,0,1-.348-2.262v-5.22h1.193v5.213a5.118,5.118,0,0,0,.191,1.717,1.663,1.663,0,0,0,.756.859,2.569,2.569,0,0,0,1.3.3,2.508,2.508,0,0,0,1.881-.593,3.482,3.482,0,0,0,.559-2.3V165.81Z" transform="translate(449.941 2060.888)" fill="#231f20"/>
    <path id="Path_388" data-name="Path 388" d="M224.566,171.622l1.192.3a3.993,3.993,0,0,1-1.363,2.242,3.7,3.7,0,0,1-2.385.777,4.218,4.218,0,0,1-2.371-.6,3.652,3.652,0,0,1-1.363-1.717,6.133,6.133,0,0,1-.477-2.419,5.281,5.281,0,0,1,.538-2.46,3.618,3.618,0,0,1,1.533-1.595,4.422,4.422,0,0,1,2.187-.552,3.659,3.659,0,0,1,2.276.681,3.523,3.523,0,0,1,1.288,1.935l-1.172.279a2.842,2.842,0,0,0-.913-1.438,2.439,2.439,0,0,0-1.506-.443,2.9,2.9,0,0,0-1.738.5,2.664,2.664,0,0,0-.981,1.363,5.37,5.37,0,0,0-.286,1.738,5.493,5.493,0,0,0,.341,2.044,2.426,2.426,0,0,0,1.043,1.281,2.9,2.9,0,0,0,1.533.429,2.589,2.589,0,0,0,1.7-.579,3.019,3.019,0,0,0,.947-1.717Z" transform="translate(445.853 2060.956)" fill="#231f20"/>
    <path id="Path_389" data-name="Path 389" d="M233.621,174.859V166.9H230.65v-1.07H237.8v1.07h-2.991v7.959Z" transform="translate(441.758 2060.882)" fill="#231f20"/>
    <path id="Path_390" data-name="Path 390" d="M243.25,174.859V165.83h1.192v9.029Z" transform="translate(437.744 2060.882)" fill="#231f20"/>
    <path id="Path_391" data-name="Path 391" d="M248.779,170.409a3.625,3.625,0,0,0,.879,2.576,3.053,3.053,0,0,0,4.422,0,3.823,3.823,0,0,0,.872-2.685,4.593,4.593,0,0,0-.375-1.928,2.814,2.814,0,0,0-1.09-1.274,2.964,2.964,0,0,0-1.608-.45,3.073,3.073,0,0,0-2.187.865,3.917,3.917,0,0,0-.913,2.91Zm-1.233,0a4.893,4.893,0,0,1,1.213-3.523,4.089,4.089,0,0,1,3.114-1.267,4.354,4.354,0,0,1,2.256.593,3.891,3.891,0,0,1,1.526,1.669,5.349,5.349,0,0,1,.531,2.419,5.253,5.253,0,0,1-.559,2.46,3.809,3.809,0,0,1-1.567,1.642,4.47,4.47,0,0,1-2.194.559,4.211,4.211,0,0,1-2.276-.62,3.884,3.884,0,0,1-1.52-1.676,5.1,5.1,0,0,1-.525-2.256Z" transform="translate(436.378 2060.95)" fill="#231f20"/>
    <path id="Path_392" data-name="Path 392" d="M262.47,174.859V165.83H263.7l4.743,7.087V165.83h1.145v9.029h-1.227l-4.743-7.094v7.094Z" transform="translate(431.621 2060.882)" fill="#231f20"/>
  </g>
</svg>
