<svg xmlns="http://www.w3.org/2000/svg" xmlns:xlink="http://www.w3.org/1999/xlink" width="169.516" height="35.955" viewBox="0 0 169.516 35.955">
  <defs>
    <clipPath id="clip-path">
      <path id="path51" d="M218.266-4411.21H387.782v-35.955H218.266Z" transform="translate(-218.266 4447.165)"/>
    </clipPath>
  </defs>
  <g id="logo-terex" transform="translate(673.967 -363.915)">
    <path id="path43" d="M-607.891,398.282H-635.65V374.422h27.759Z" transform="translate(-33.02 -9.055)" fill="#fff"/>
    <g id="g47" transform="translate(-673.967 363.915)" clip-path="url(#clip-path)">
      <g id="g53" transform="translate(4.552 0.767)">
        <path id="path55" d="M-9.807,0A1.578,1.578,0,0,0-11.38,1.578V23.535a1.578,1.578,0,0,0,1.573,1.577H16.218a1.574,1.574,0,0,0,1.57-1.577V1.578A1.574,1.574,0,0,0,16.218,0Z" transform="translate(11.38 0)" fill="#fff"/>
      </g>
      <g id="g57" transform="translate(4.552 0.767)">
        <path id="path59" d="M-9.807,0A1.578,1.578,0,0,0-11.38,1.578V23.535a1.578,1.578,0,0,0,1.573,1.577H16.218a1.574,1.574,0,0,0,1.57-1.577V1.578A1.574,1.574,0,0,0,16.218,0Zm-.4,23.535V1.578a.4.4,0,0,1,.4-.4H16.218a.4.4,0,0,1,.395.4V23.535a.4.4,0,0,1-.395.4H-9.807a.406.406,0,0,1-.4-.4" transform="translate(11.38 0)"/>
      </g>
      <g id="g61" transform="translate(8.148 4.079)">
        <path id="path63" d="M-136.8-.444l-4.834,4.833V4.4a.843.843,0,0,1-.628.272.8.8,0,0,1-.6-.3l-4.9-4.889-4.887,4.893a.8.8,0,0,1-.607.3.87.87,0,0,1-.628-.286l-4.834-4.833-.036-.034V18.069h21.982V-.478Zm-12.779,11.637-7.343.018a.9.9,0,0,1-.9-.9.869.869,0,0,1,.153-.5l3.846-3.864a.885.885,0,0,1,.578-.213.744.744,0,0,1,.642.272l3.75,3.769a.89.89,0,0,1,.171.521.9.9,0,0,1-.9.9m11.012.018-7.338-.018a.9.9,0,0,1-.9-.9.894.894,0,0,1,.169-.521l3.75-3.769a.751.751,0,0,1,.642-.272.894.894,0,0,1,.582.213l3.843,3.864a.885.885,0,0,1,.148.5.894.894,0,0,1-.893.9" transform="translate(158.752 0.515)" fill="#d31145"/>
      </g>
      <g id="g65" transform="translate(41.536 4.116)">
        <path id="path67" d="M-46-115.407V-130h-7.381v-3.925h19.778V-130h-6.965v14.592Z" transform="translate(53.384 133.924)"/>
      </g>
      <g id="g69" transform="translate(63.822 4.116)">
        <path id="path71" d="M0-115.407v-18.517H17.827v4.067H4.732v3.507H17.547v3.646H4.732v3.648H17.827v3.649Z" transform="translate(0 133.924)"/>
      </g>
      <g id="g73" transform="translate(108.529 4.116)">
        <path id="path75" d="M0-115.407v-18.517H17.828v4.067H4.735v3.507H17.55v3.646H4.735v3.648H17.828v3.649Z" transform="translate(0 133.924)"/>
      </g>
      <g id="g77" transform="translate(127.606 4.116)">
        <path id="path79" d="M-148.234-115.632l-8.633-9.768,7.763-8.785h-6.478l-4.533,5.112-4.519-5.112h-6.477l7.733,8.785-8.64,9.732h6.549l5.338-6.041,5.352,6.077Z" transform="translate(172.017 134.185)"/>
      </g>
      <g id="g81" transform="translate(85.13 4.116)">
        <path id="path83" d="M-30.606-23.594h8.632c2.822,0,2.894,3.788.1,3.788h-8.773Zm-4.911-3.786V-8.863h4.874v-7.012h4.805l5.363,7.012h5.85s-5.363-7.084-5.3-7.012c5.991.136,8.229-11.5-1.948-11.5Z" transform="translate(35.517 27.38)"/>
      </g>
      <g id="g85" transform="translate(151.635 17.091)">
        <path id="path87" d="M-10.658-28.213h.507v-1.4h.545l.921,1.4h.505l-.952-1.435a.885.885,0,0,0,.9-.92c0-.661-.4-.974-1.135-.974h-1.29Zm.507-1.857v-1.013h.691c.353,0,.72.054.72.49,0,.5-.406.522-.866.522Zm-2.217.177a2.845,2.845,0,0,0,2.846,2.846,2.845,2.845,0,0,0,2.846-2.846A2.845,2.845,0,0,0-9.522-32.74a2.845,2.845,0,0,0-2.846,2.847m2.846,2.385a2.358,2.358,0,0,1-2.339-2.385A2.361,2.361,0,0,1-9.522-32.28a2.362,2.362,0,0,1,2.341,2.387,2.359,2.359,0,0,1-2.341,2.385" transform="translate(12.368 32.74)"/>
      </g>
    </g>
  </g>
</svg>
