<svg xmlns="http://www.w3.org/2000/svg" width="20.547" height="20.547" viewBox="0 0 20.547 20.547">
  <g id="check" transform="translate(-17.5 -17.5)">
    <path id="Path_27" data-name="Path 27" d="M34.1,17.5H21.451A3.956,3.956,0,0,0,17.5,21.451V34.1a3.956,3.956,0,0,0,3.951,3.951H34.1A3.956,3.956,0,0,0,38.047,34.1V21.451A3.956,3.956,0,0,0,34.1,17.5Zm2.371,16.6A2.373,2.373,0,0,1,34.1,36.466H21.451A2.373,2.373,0,0,1,19.081,34.1V21.451a2.373,2.373,0,0,1,2.371-2.371H34.1a2.373,2.373,0,0,1,2.371,2.371Z"/>
    <path id="Path_28" data-name="Path 28" d="M42.215,37.731,36.451,43.5l-2.6-2.6a.79.79,0,0,0-1.117,1.117l3.161,3.161a.79.79,0,0,0,1.117,0l6.322-6.322a.79.79,0,0,0-1.118-1.118Z" transform="translate(-10.259 -13.678)"/>
  </g>
</svg>
