<svg xmlns="http://www.w3.org/2000/svg" width="22" height="22" viewBox="0 0 22 22">
  <g id="noun_expand_32687" transform="translate(-5 -5)">
    <g id="Group_358" data-name="Group 358" transform="translate(5 5)">
      <path id="Path_269" data-name="Path 269" d="M26.161,5H10.681a.842.842,0,0,0-.839.839V9.845h-4A.838.838,0,0,0,5,10.684V26.161A.838.838,0,0,0,5.839,27H21.316a.838.838,0,0,0,.839-.839v-4h4.005A.842.842,0,0,0,27,21.319V5.839A.842.842,0,0,0,26.161,5ZM20.477,25.322H6.678v-13.8H9.842v9.8a.842.842,0,0,0,.839.839h9.8Zm4.845-4.842H11.52V6.678h13.8Z" transform="translate(-5 -5)"/>
      <path id="Path_270" data-name="Path 270" d="M49.805,21.608V26.8a.839.839,0,1,1-1.678,0V23.633l-6.409,6.409a.839.839,0,1,1-1.186-1.186l6.408-6.408H43.774a.839.839,0,1,1,0-1.678h5.192a.808.808,0,0,1,.168.017.656.656,0,0,1,.081.022.832.832,0,0,1,.551.551.7.7,0,0,1,.022.081A.8.8,0,0,1,49.805,21.608Z" transform="translate(-31.659 -16.914)"/>
    </g>
  </g>
</svg>
