<svg xmlns="http://www.w3.org/2000/svg" width="37.393" height="37.393" viewBox="0 0 37.393 37.393">
  <g id="facebook" transform="translate(0 0)">
    <path id="Path_246" data-name="Path 246" d="M-7302.866,132.9a18.7,18.7,0,0,0-18.7,18.7,18.7,18.7,0,0,0,18.7,18.7,18.7,18.7,0,0,0,18.7-18.7A18.7,18.7,0,0,0-7302.866,132.9Zm5.57,11.964a.42.42,0,0,1-.419.42h-1.8c-1.241,0-1.468.484-1.468,1.436V148.7h3.142a.423.423,0,0,1,.3.123.42.42,0,0,1,.122.3v3.387a.42.42,0,0,1-.42.42h-3.141v8.547a.42.42,0,0,1-.419.42h-3.505a.42.42,0,0,1-.42-.42v-8.547h-2.687a.42.42,0,0,1-.419-.42V149.12a.419.419,0,0,1,.419-.42h2.687v-2.338a4.692,4.692,0,0,1,4.941-5.071l2.673,0a.42.42,0,0,1,.419.42Z" transform="translate(7321.561 -132.897)" fill="#5facfa"/>
  </g>
</svg>
