<svg xmlns="http://www.w3.org/2000/svg" width="37.393" height="37.393" viewBox="0 0 37.393 37.393">
  <g id="g-plus" transform="translate(0 0)">
    <path id="Path_250" data-name="Path 250" d="M-5447.554,133a18.7,18.7,0,0,0-18.7,18.7,18.7,18.7,0,0,0,18.7,18.7,18.7,18.7,0,0,0,18.7-18.7A18.7,18.7,0,0,0-5447.554,133Zm-3.865,26.865a8.5,8.5,0,0,1-10.556-7.033.814.814,0,0,0-.095-.215v-1.936a11.1,11.1,0,0,1,1.329-3.589,8.46,8.46,0,0,1,12.122-2.268c.223.167.432.353.546.447l-2.093,2.368a5,5,0,0,0-4.134-1.285,5.036,5.036,0,0,0-2.929,1.441,5.417,5.417,0,0,0-1.039,6.3,5.283,5.283,0,0,0,5.647,2.825,4.364,4.364,0,0,0,3.765-3.556h-4.71v-2.893h7.911C-5444.539,154.373-5447.338,158.912-5451.419,159.865Zm14.763-7.006v3.6h-2.4v-3.585h-3.622v-2.4h3.58v-3.624h2.4v3.594h3.662v2.419Z" transform="translate(5466.25 -133)" fill="#5facfa"/>
  </g>
</svg>
