<svg xmlns="http://www.w3.org/2000/svg" width="23.894" height="23.894" viewBox="0 0 23.894 23.894">
  <g id="icon-globe" transform="translate(-5.5 -5.5)">
    <g id="Layer_2" data-name="Layer 2" transform="translate(5.5 5.5)">
      <path id="Path_254" data-name="Path 254" d="M27.637,23.684a11.891,11.891,0,0,0,1.757-6.237h0a11.891,11.891,0,0,0-1.757-6.237l-.007-.01a11.948,11.948,0,0,0-20.367,0l-.007.01a11.951,11.951,0,0,0,0,12.474l.007.011a11.948,11.948,0,0,0,20.367,0Zm-8.663,3.662a2.9,2.9,0,0,1-.776.536,1.751,1.751,0,0,1-1.5,0A3.657,3.657,0,0,1,15.34,26.69,10.678,10.678,0,0,1,13.8,23.342q1.823-.112,3.65-.114t3.65.114a13.476,13.476,0,0,1-.655,1.8,6.927,6.927,0,0,1-1.468,2.2ZM6.866,18.118h4.819a23.707,23.707,0,0,0,.436,4q-1.976.174-3.942.478a10.532,10.532,0,0,1-1.313-4.482Zm1.313-5.824q1.965.3,3.943.478a23.666,23.666,0,0,0-.437,4H6.866a10.532,10.532,0,0,1,1.313-4.482ZM15.92,7.548a2.9,2.9,0,0,1,.776-.536,1.751,1.751,0,0,1,1.5,0A3.657,3.657,0,0,1,19.554,8.2,10.678,10.678,0,0,1,21.1,11.552q-1.823.112-3.65.114t-3.65-.114a13.475,13.475,0,0,1,.655-1.8,6.927,6.927,0,0,1,1.468-2.2Zm12.108,9.228H23.209a23.709,23.709,0,0,0-.436-4q1.976-.174,3.942-.478A10.532,10.532,0,0,1,28.028,16.776ZM13.47,22.018a22.2,22.2,0,0,1-.443-3.9h8.84a22.2,22.2,0,0,1-.442,3.9q-1.987-.13-3.978-.133T13.47,22.018Zm7.953-9.142a22.2,22.2,0,0,1,.443,3.9h-8.84a22.2,22.2,0,0,1,.442-3.9q1.987.13,3.978.133t3.977-.133Zm1.785,5.242h4.819A10.532,10.532,0,0,1,26.716,22.6q-1.965-.3-3.943-.478A23.665,23.665,0,0,0,23.209,18.118Zm2.7-7.06q-1.718.248-3.446.393a15.308,15.308,0,0,0-.8-2.254,9.525,9.525,0,0,0-1.111-1.891A10.6,10.6,0,0,1,25.911,11.059ZM9.948,9.948a10.6,10.6,0,0,1,4.391-2.643c-.025.033-.051.064-.076.1a12.254,12.254,0,0,0-1.831,4.049Q10.7,11.3,8.983,11.059A10.692,10.692,0,0,1,9.948,9.948ZM8.983,23.835q1.718-.248,3.446-.393a15.308,15.308,0,0,0,.8,2.254,9.527,9.527,0,0,0,1.111,1.891,10.6,10.6,0,0,1-5.357-3.753Zm15.962,1.11a10.6,10.6,0,0,1-4.391,2.643c.025-.033.051-.064.076-.1a12.254,12.254,0,0,0,1.831-4.049q1.728.146,3.449.393a10.692,10.692,0,0,1-.965,1.11Z" transform="translate(-5.5 -5.5)" fill="#fff"/>
    </g>
  </g>
</svg>
