<?xml version="1.0" encoding="utf-8"?>
<svg xmlns="http://www.w3.org/2000/svg" width="39.5" height="49.46" viewBox="0 0 39.5 49.46">
  <g id="noun_PDF_117327" transform="translate(-11.5 -1.5)">
    <g id="Group_44" data-name="Group 44" transform="translate(11.5 1.5)">
      <path id="Path_31" data-name="Path 31" d="M43.239,33.769a6.111,6.111,0,0,1-2.436.06,11.625,11.625,0,0,1-3.077-.918,9.137,9.137,0,0,1,4.44.245,4.852,4.852,0,0,1,1.074.613M33.083,32.1l-.219.059c-.49.133-.967.263-1.426.379l-.619.157c-1.246.315-2.519.637-3.777,1.021.478-1.153.922-2.318,1.357-3.458.322-.843.651-1.705.991-2.556q.259.427.54.856A16.655,16.655,0,0,0,33.083,32.1m-3.169-13a10.74,10.74,0,0,1-.676,4.1,6.572,6.572,0,0,1-.12-4.863,2.8,2.8,0,0,1,.418-.673,3.155,3.155,0,0,1,.378,1.432m-6.5,18.02c-.312.557-.63,1.079-.956,1.572-.787,1.185-2.073,2.455-2.734,2.455a.325.325,0,0,1-.259-.132.247.247,0,0,1-.082-.209,3.892,3.892,0,0,1,1.436-1.932,14.133,14.133,0,0,1,2.595-1.754M45.344,33.83c-.1-1.452-2.545-2.383-2.569-2.392a9.26,9.26,0,0,0-3.138-.5,18.8,18.8,0,0,0-4.324.585,15.048,15.048,0,0,1-3.86-3.968c-.438-.668-.833-1.334-1.176-1.986a14.719,14.719,0,0,0,1.457-6.578c-.111-1.937-.984-3.238-2.172-3.238-.815,0-1.516.6-2.087,1.795-1.018,2.124-.75,4.841.794,8.083C27.713,26.942,27.2,28.3,26.7,29.608c-.622,1.631-1.264,3.313-1.987,4.913a17.548,17.548,0,0,0-5.08,2.969,5.248,5.248,0,0,0-2.068,3.221,2.06,2.06,0,0,0,.58,1.556,2.142,2.142,0,0,0,1.581.7c1.983,0,3.89-2.724,4.252-3.27a29.588,29.588,0,0,0,2.078-3.735c1.683-.608,3.476-1.062,5.214-1.5l.622-.158c.468-.119.954-.25,1.453-.387.528-.143,1.071-.291,1.623-.431a14.36,14.36,0,0,0,5.576,2.147,6.7,6.7,0,0,0,3.924-.4,1.442,1.442,0,0,0,.88-1.4m3.839,12.485a2.68,2.68,0,0,1-2.817,2.828H16.131a2.683,2.683,0,0,1-2.814-2.828V6.146a2.68,2.68,0,0,1,2.814-2.828H36.556l.011.011V11.3a4.463,4.463,0,0,0,4.63,4.628h7.919l.068.068v30.32ZM47.306,14.11H41.2A2.67,2.67,0,0,1,38.385,11.3V5.152ZM51,46.315V15.245L38.385,2.577V2.518h-.06L37.311,1.5H16.131A4.471,4.471,0,0,0,11.5,6.146v40.17a4.473,4.473,0,0,0,4.631,4.645H46.37A4.471,4.471,0,0,0,51,46.315" transform="translate(-11.5 -1.5)" fill="#f47a22"/>
    </g>
  </g>
</svg>
