<svg xmlns="http://www.w3.org/2000/svg" width="37.394" height="37.393" viewBox="0 0 37.394 37.393">
  <g id="linkdin" transform="translate(0 0)">
    <path id="Path_245" data-name="Path 245" d="M-7912.087,127.472a18.7,18.7,0,0,0-18.7,18.7,18.7,18.7,0,0,0,18.7,18.7,18.7,18.7,0,0,0,18.7-18.7A18.7,18.7,0,0,0-7912.087,127.472Zm-4.618,27.233h-3.553v-10.73h3.553Zm-1.786-12.783a2.153,2.153,0,0,1-2.146-2.136,2.168,2.168,0,0,1,2.148-2.163,2.154,2.154,0,0,1,2.151,2.153A2.14,2.14,0,0,1-7918.491,141.922Zm14.953,12.631c0,.046,0,.091-.009.161h-3.578v-.28q0-2.955,0-5.909a1.826,1.826,0,0,0-1.316-1.851,1.8,1.8,0,0,0-2.246,1.492c-.015.155-.019.311-.019.466q0,2.9,0,5.792v.286h-3.565V143.986h3.57v1.3a11.527,11.527,0,0,1,.991-.876,3.712,3.712,0,0,1,4.674.322,4.04,4.04,0,0,1,1.5,3.189C-7903.532,150.131-7903.538,152.342-7903.538,154.553Z" transform="translate(7930.783 -127.472)" fill="#5facfa"/>
  </g>
</svg>
