<svg xmlns="http://www.w3.org/2000/svg" width="37.394" height="37.393" viewBox="0 0 37.394 37.393">
  <g id="twitter" transform="translate(0 0)">
    <path id="Path_247" data-name="Path 247" d="M-6680.173,132.743a18.7,18.7,0,0,0-18.7,18.7,18.7,18.7,0,0,0,18.7,18.7,18.7,18.7,0,0,0,18.7-18.7A18.7,18.7,0,0,0-6680.173,132.743Zm7.407,14.9q.011.246.011.494a10.8,10.8,0,0,1-10.874,10.873,10.816,10.816,0,0,1-5.858-1.717,7.766,7.766,0,0,0,.912.053,7.666,7.666,0,0,0,4.745-1.636,3.825,3.825,0,0,1-3.57-2.654,3.832,3.832,0,0,0,1.726-.065,3.824,3.824,0,0,1-3.066-3.747v-.048a3.809,3.809,0,0,0,1.731.481,3.826,3.826,0,0,1-1.183-5.1,10.849,10.849,0,0,0,7.876,3.993,3.828,3.828,0,0,1,2.864-4.594,3.834,3.834,0,0,1,.86-.1,3.817,3.817,0,0,1,2.789,1.206,7.658,7.658,0,0,0,2.427-.927,3.835,3.835,0,0,1-1.681,2.114,7.641,7.641,0,0,0,2.2-.6A7.774,7.774,0,0,1-6672.766,147.64Z" transform="translate(6698.869 -132.743)" fill="#5facfa"/>
  </g>
</svg>
