<svg xmlns="http://www.w3.org/2000/svg" width="37.393" height="37.393" viewBox="0 0 37.393 37.393">
  <g id="youtube" transform="translate(0 0)">
    <path id="Path_248" data-name="Path 248" d="M-6064.112,133a18.7,18.7,0,0,0-18.7,18.7,18.7,18.7,0,0,0,18.7,18.7,18.7,18.7,0,0,0,18.7-18.7A18.7,18.7,0,0,0-6064.112,133Zm10.3,22.386a3.487,3.487,0,0,1-3.486,3.486h-13.629a3.487,3.487,0,0,1-3.487-3.486V148.1a3.487,3.487,0,0,1,3.487-3.486h13.629a3.487,3.487,0,0,1,3.486,3.486Z" transform="translate(6082.809 -133)" fill="#5facfa"/>
    <path id="Path_249" data-name="Path 249" d="M-5903.458,302.488v6.339l3.09-1.585,3.091-1.585-3.091-1.585Z" transform="translate(5919.936 -286.916)" fill="#5facfa"/>
  </g>
</svg>
