<svg xmlns="http://www.w3.org/2000/svg" width="52" height="52" viewBox="0 0 52 52">
  <g id="Group_390" data-name="Group 390" transform="translate(-557 -5150)">
    <path id="Path_277" data-name="Path 277" d="M52.267,34.542V15a4.338,4.338,0,0,0-4.333-4.333H36.667V6.333A4.338,4.338,0,0,0,32.333,2h-10.4A4.338,4.338,0,0,0,17.6,6.333v4.333H6.333A4.338,4.338,0,0,0,2,15V45.333a4.338,4.338,0,0,0,4.333,4.333h25A12.98,12.98,0,0,0,52.267,34.542Zm-1.733-2.351a13.068,13.068,0,0,0-2.263-1.963,6.074,6.074,0,0,0,2.263-1.458ZM19.333,6.333a2.6,2.6,0,0,1,2.6-2.6h10.4a2.6,2.6,0,0,1,2.6,2.6v4.333H33.2V6.333a.866.866,0,0,0-.867-.867h-10.4a.866.866,0,0,0-.867.867v4.333H19.333Zm12.133,4.333H22.8V7.2h8.667ZM3.733,15a2.6,2.6,0,0,1,2.6-2.6h41.6a2.6,2.6,0,0,1,2.6,2.6v9.533A4.338,4.338,0,0,1,46.2,28.867h-.571a12.795,12.795,0,0,0-9.258,0H32.333v-2.6a.866.866,0,0,0-.867-.867H22.8a.866.866,0,0,0-.867.867v2.6H8.067a4.338,4.338,0,0,1-4.333-4.333V15ZM30.6,28.867H23.667V27.133H30.6ZM9.8,30.6h2.6v2.6H9.8ZM6.333,47.933a2.6,2.6,0,0,1-2.6-2.6V28.77A6.044,6.044,0,0,0,8.067,30.6v3.467a.866.866,0,0,0,.867.867h4.333a.866.866,0,0,0,.867-.867V30.6h19.1a12.93,12.93,0,0,0-3.21,17.333Zm35.533,4.289V50.533H40.133v1.689a11.251,11.251,0,0,1-7.8-4.033v-.256h-.2a11.2,11.2,0,0,1-2.361-6.067h1.69V40.133H29.778A11.269,11.269,0,0,1,40.133,29.778v1.689h1.733V29.778A11.269,11.269,0,0,1,52.222,40.133H50.533v1.733h1.689A11.269,11.269,0,0,1,41.867,52.222Z" transform="translate(555 5148)" fill="#f47920"/>
    <path id="Path_278" data-name="Path 278" d="M48,38H46v9a1,1,0,0,0,.293.707l6,6,1.414-1.414L48,46.586Z" transform="translate(546.177 5138.973)" fill="#f47920"/>
    <rect id="Rectangle_109" data-name="Rectangle 109" width="2" height="2" transform="translate(594.931 5172.414)" fill="#f47920"/>
    <rect id="Rectangle_110" data-name="Rectangle 110" width="2" height="2" transform="translate(596.13 5172.414)" fill="#f47920"/>
    <rect id="Rectangle_111" data-name="Rectangle 111" width="2" height="2" transform="translate(591.483 5172.414)" fill="#f47920"/>
  </g>
</svg>
