<svg xmlns="http://www.w3.org/2000/svg" width="76.85" height="49.001" viewBox="0 0 76.85 49.001">
  <path id="Path_279" data-name="Path 279" d="M16.407,94.322-18.836,79.765a1.494,1.494,0,0,0-1.149,0L-54.539,94.016a.268.268,0,0,0-.153.077l-1,.536a1.445,1.445,0,0,0-.766,1.456,1.409,1.409,0,0,0,.919,1.3l1,.383v9.424A5.514,5.514,0,0,0-58.6,112.48,5.493,5.493,0,0,0-53.084,118a5.493,5.493,0,0,0,5.516-5.516,5.614,5.614,0,0,0-3.907-5.287V99.149l7.508,3.065.153,16.166a1.544,1.544,0,0,0,.23.843c.23.306,5.21,7.432,23.215,8.351.843.077,1.686.077,2.528.077,16.166,0,22.525-8.5,22.755-8.887a1.877,1.877,0,0,0,.306-.919V101.754L16.331,97.08a1.542,1.542,0,0,0,.919-1.456A1.275,1.275,0,0,0,16.407,94.322Zm-66.962,18.235a2.42,2.42,0,0,1-2.452,2.452,2.42,2.42,0,0,1-2.452-2.452,2.42,2.42,0,0,1,2.452-2.452A2.469,2.469,0,0,1-50.555,112.557Zm30.417,11.952c-14.1-.766-19.384-5.44-20.533-6.742l-.153-14.327,20.61,8.5a1.443,1.443,0,0,0,.613.153,1.8,1.8,0,0,0,.613-.153l15.247-6.359L-3.59,121.6C-7.267,123.436-12.63,124.892-20.139,124.509Zm22.3-7.125a14.787,14.787,0,0,1-2.835,2.452l-.077-15.476.46-.23,2.452-1.073Zm-21.759-8.5L-51.015,95.931l31.566-13.1L11.81,95.7Z" transform="translate(59.1 -79.149)" fill="#f47920" stroke="#fff" stroke-width="1"/>
</svg>
