<svg xmlns="http://www.w3.org/2000/svg" width="49.515" height="57.976" viewBox="0 0 49.515 57.976">
  <g id="Group_391" data-name="Group 391" transform="translate(0.5 0.546)">
    <path id="Path_280" data-name="Path 280" d="M23.595,56.794C23.544,56.773,5.7,49.379.2,38.915a1.721,1.721,0,0,1-.2-.8L0,6.43A1.734,1.734,0,0,1,2.148,4.749,28.785,28.785,0,0,0,23.27.315a1.727,1.727,0,0,1,1.992.011A28.785,28.785,0,0,0,46.411,4.739a1.734,1.734,0,0,1,2.1,1.691V38.117a4.32,4.32,0,0,1-.86,1.939C41.529,49.913,24.969,56.774,24.92,56.794a1.724,1.724,0,0,1-1.326,0ZM10.156,29.073a1.727,1.727,0,0,1,2.422-2.462l8.767,8.66,14.9-19.133a1.731,1.731,0,0,1,2.733,2.124L22.747,39.078a1.727,1.727,0,0,1-2.442.02L10.156,29.073ZM3.463,37.69c4.53,8.06,17.692,14.251,20.794,15.624,3.1-1.373,16.265-7.564,20.794-15.624V8.446A32.552,32.552,0,0,1,24.257,3.8,32.547,32.547,0,0,1,3.463,8.446V37.69Z" transform="translate(0 -0.004)" fill="#f47920" stroke="#fff" stroke-width="1"/>
  </g>
</svg>
