<svg xmlns="http://www.w3.org/2000/svg" width="64.028" height="49.7" viewBox="0 0 64.028 49.7">
  <g id="Group_392" data-name="Group 392" transform="translate(-1 -8.1)">
    <g id="Group_392-2" data-name="Group 392">
      <path id="Path_281" data-name="Path 281" d="M34.8,28.1H3a2.006,2.006,0,0,0-2,2v4.4a.945.945,0,0,0,1,1H3V55.8a2.006,2.006,0,0,0,2,2H32.7a2.006,2.006,0,0,0,2-2V35.6h1.1a.945.945,0,0,0,1-1V30.2A2.03,2.03,0,0,0,34.8,28.1ZM3,30.1H17.9v3.4H3Zm22.4,5.5L28.1,39l-1.4.1a1.061,1.061,0,0,0-.9.9l-.1.9L21,35.6h4.4Zm-8.7,0L12,40.9l-.2-.9a1.061,1.061,0,0,0-.9-.9L9.5,39l2.7-3.4ZM5,35.6H9.7L6.8,39.1a.991.991,0,0,0,.7,1.6l2.4.3.3,2.4a.989.989,0,0,0,1.7.6l5.9-6.7V55.9H5ZM32.7,55.8H19.9V37.2l5.9,6.7a.982.982,0,0,0,1.7-.6l.3-2.4,2.4-.3a.991.991,0,0,0,.7-1.6L28,35.6h4.7Zm2.1-22.2H19.9V30.2H34.8Z" fill="#f47920"/>
    </g>
    <g id="Group_393" data-name="Group 393">
      <path id="Path_282" data-name="Path 282" d="M53.2,19.6a.945.945,0,0,0-1,1,4.481,4.481,0,0,1-4.5,4.5,1,1,0,0,0,0,2,6.487,6.487,0,0,0,6.5-6.5A1.075,1.075,0,0,0,53.2,19.6Z" fill="#f47920"/>
    </g>
    <g id="Group_394" data-name="Group 394">
      <path id="Path_283" data-name="Path 283" d="M62.1,9.8H58.9V9.1a.945.945,0,0,0-1-1H38a.945.945,0,0,0-1,1v.7H33.8A2.8,2.8,0,0,0,31,12.6V15a7.036,7.036,0,0,0,6.2,7,10.8,10.8,0,0,0,8,9.3V47.6H43.5a2.006,2.006,0,0,0-2,2v2H40.3a2.006,2.006,0,0,0-2,2v3a.945.945,0,0,0,1,1H56.7a.945.945,0,0,0,1-1v-3a2.006,2.006,0,0,0-2-2H54.5v-2a2.006,2.006,0,0,0-2-2H50.8V31.4a10.911,10.911,0,0,0,8-9.3C65.5,21,67.1,9.8,62.1,9.8ZM32.9,15.1V12.7a.789.789,0,0,1,.8-.8H37v8.3A5.344,5.344,0,0,1,32.9,15.1ZM55.6,55.8H40.3v-2H55.7v2Zm-3.1-4H43.4v-2h9.1Zm-3.7-4H47.1v-16h1.6v16Zm-.8-18a8.92,8.92,0,0,1-8.9-8.9V10.1H56.9V20.9A8.92,8.92,0,0,1,48,29.8ZM63,14.2a6.554,6.554,0,0,1-4.1,5.9V11.9h3.2C63.3,11.8,62.9,13.5,63,14.2Z" fill="#f47920"/>
    </g>
  </g>
</svg>
