<svg xmlns="http://www.w3.org/2000/svg" width="65.256" height="56.15" viewBox="0 0 65.256 56.15">
  <g id="Group_403" data-name="Group 403" transform="translate(-765.5 -5783)">
    <g id="Group_402" data-name="Group 402" transform="translate(765.5 5783)">
      <g id="Group_395" data-name="Group 395" transform="translate(0 22.764)">
        <path id="Path_284" data-name="Path 284" d="M54.276,74.886H10.9a3.153,3.153,0,0,1-3.4-3.059V45.1a3.62,3.62,0,0,1,3.4-3.6H54.276c1.722,0,2.545,1.509,2.545,3.6V71.827C56.821,73.827,56.026,74.886,54.276,74.886ZM10.9,43.776A1.4,1.4,0,0,0,9.776,45.1V71.827c0,.587.58.783,1.122.783H54.276c.2,0,.269.2.269-.783V45.1c0-.2.273-1.323-.269-1.323Z" transform="translate(-7.5 -41.5)" fill="#f47920"/>
      </g>
      <g id="Group_396" data-name="Group 396" transform="translate(17.452 18.97)">
        <path id="Path_285" data-name="Path 285" d="M44.538,42.71A1.141,1.141,0,0,1,43.4,41.554V39.512c0-.477-.483-.736-1.1-.736H33.534c-.582,0-.758.174-.758.736v2.042a1.138,1.138,0,1,1-2.276,0V39.512A2.831,2.831,0,0,1,33.534,36.5H42.3a3.094,3.094,0,0,1,3.378,3.012v2.042A1.141,1.141,0,0,1,44.538,42.71Z" transform="translate(-30.5 -36.5)" fill="#f47920"/>
      </g>
      <g id="Group_397" data-name="Group 397" transform="translate(35.663 9.864)">
        <path id="Path_286" data-name="Path 286" d="M80.139,65.474H71.383a1.138,1.138,0,1,1,0-2.276h8.756c.953,0,1.677-.4,1.677-1.37V28.891c0-1-.755-2.115-1.677-2.115H58.759a2.315,2.315,0,0,0-1.983,2.115v5.724a1.138,1.138,0,1,1-2.276,0V28.891A4.544,4.544,0,0,1,58.759,24.5h21.38a4.3,4.3,0,0,1,3.953,4.391V61.828A3.652,3.652,0,0,1,80.139,65.474Z" transform="translate(-54.5 -24.5)" fill="#f47920"/>
      </g>
      <g id="Group_398" data-name="Group 398" transform="translate(55.909 48.926)">
        <path id="Path_287" data-name="Path 287" d="M84.649,82.913a3.467,3.467,0,1,1,3.467-3.467A3.471,3.471,0,0,1,84.649,82.913Zm0-4.623A1.156,1.156,0,1,0,85.8,79.446,1.157,1.157,0,0,0,84.649,78.29Z" transform="translate(-81.182 -75.979)" fill="#f47920"/>
      </g>
      <g id="Group_399" data-name="Group 399" transform="translate(44.009 0)">
        <path id="Path_288" data-name="Path 288" d="M76.5,23.968a1.141,1.141,0,0,1-1.138-1.156V15.933a2.212,2.212,0,0,0-1.817-2.156H69.5c-.97,0-1.726,1.2-1.726,2.156v6.879a1.138,1.138,0,1,1-2.276,0V15.933c0-2.222,1.762-4.433,4-4.433h4.045a4.456,4.456,0,0,1,4.094,4.433v6.879A1.141,1.141,0,0,1,76.5,23.968Z" transform="translate(-65.499 -11.5)" fill="#f47920"/>
      </g>
      <g id="Group_400" data-name="Group 400" transform="translate(54.633 17.452)">
        <rect id="Rectangle_112" data-name="Rectangle 112" width="2.276" height="25.04" transform="translate(0 0)" fill="#f47920"/>
      </g>
      <g id="Group_401" data-name="Group 401" transform="translate(44.01 17.452)">
        <rect id="Rectangle_113" data-name="Rectangle 113" width="2.276" height="3.035" transform="translate(0 0)" fill="#f47920"/>
      </g>
    </g>
  </g>
</svg>
